<svg id="Layer_1" height="512" viewBox="0 0 512 512" width="512" xmlns="http://www.w3.org/2000/svg" data-name="Layer 1"><path d="m41 179.72 69.389-90.432-6.169-31.058-93.22 121.49 214.76 214.76-24.902-54.902z" fill="#d4e1f4"/><path d="m442.513 447.767h-183.053a6 6 0 1 0 0 12h183.053a6 6 0 0 0 0-12z" fill="#1ae5be"/><path d="m446.066 177.425a5.929 5.929 0 0 0 -.793-1.349l.01-.008-93.216-121.487a6 6 0 0 0 -4.76-2.348h-243.091a6 6 0 0 0 -4.761 2.348l-93.215 121.487.009.008a5.945 5.945 0 0 0 .508 7.887l214.762 214.762a5.99 5.99 0 0 0 9.7-1.76l7.861-17.328a6 6 0 1 0 -10.929-4.957l-2.4 5.282-88.1-194.237h176.216l-20.078 44.264 10.928 4.957 22.327-49.221h98.993l-114.487 114.484 8.485 8.484 124.73-124.73a6 6 0 0 0 1.301-6.538zm-345.155-105.025 20.126 101.325h-97.87zm105.749 294.5-181.175-181.179h98.994zm-74.938-200.981-20.2-101.686h101.737zm9.126 7.8 84.913-105.9 84.914 105.9zm178.953-7.8-81.538-101.686h101.737zm10.685 7.8 20.125-101.319 77.745 101.325z" fill="#0635c9"/><path d="m507 274.655a20.622 20.622 0 1 0 -27.933 19.259 36.03 36.03 0 0 1 -70.634-6.879 63.949 63.949 0 0 0 6.61-21.782 20.615 20.615 0 1 0 -12.057-.289 52.475 52.475 0 0 1 -103.958 0 20.628 20.628 0 1 0 -12.058.289 63.961 63.961 0 0 0 6.575 21.712 36.029 36.029 0 0 1 -70.639 6.949 20.621 20.621 0 1 0 -12.338.718l26 126.724a20.7 20.7 0 0 0 20.2 16.478h188.44a20.7 20.7 0 0 0 20.2-16.478l26-126.724a20.639 20.639 0 0 0 15.592-19.977zm-97.506-37.865a8.622 8.622 0 1 1 -8.622 8.622 8.631 8.631 0 0 1 8.622-8.622zm-125.6 8.622a8.622 8.622 0 1 1 8.622 8.621 8.632 8.632 0 0 1 -8.616-8.621zm-76.925 29.243a8.622 8.622 0 1 1 8.622 8.622 8.632 8.632 0 0 1 -8.618-8.622zm238.239 151.179h-188.443a8.652 8.652 0 0 1 -8.446-6.89l-2.119-10.354h209.578l-2.124 10.354a8.652 8.652 0 0 1 -8.446 6.89zm13.032-29.244h-214.506l-15.206-74.125a48.053 48.053 0 0 0 74.307-21.9 64.362 64.362 0 0 0 96.316.032 48.052 48.052 0 0 0 74.294 21.871zm28.138-113.313a8.622 8.622 0 1 1 8.622-8.622 8.631 8.631 0 0 1 -8.622 8.622z" fill="#1ae5be"/></svg>